<svg id="Layer_1" data-name="Layer 1" xmlns="http://www.w3.org/2000/svg" width="87.8mm" height="37.43mm" viewBox="0 0 248.88 106.1">
  <title>ujblog_logo</title>
  <path d="M56.1,66.89a12.11,12.11,0,0,1-10.44,5.45q-5.88,0-9.22-3.78T33.1,56.83V41.43l-4.1-1V34.33H43.15V56.9q0,4.07,1.36,5.84a4.83,4.83,0,0,0,4.05,1.78,10,10,0,0,0,4.11-.78,7.19,7.19,0,0,0,2.84-2.22V41.43l-4.4-1V34.33H65.57V64.55l4.51,1v6H56.75ZM85.63,73q0,6.56-3.47,10.12t-9.64,3.56A20,20,0,0,1,70,86.53a21,21,0,0,1-2.39-.44L68,78.4a11.81,11.81,0,0,0,1.55.31,14.06,14.06,0,0,0,1.72.11,3.78,3.78,0,0,0,3.15-1.43A7.09,7.09,0,0,0,75.58,73V41.43l-5.37-1V34.33H85.63V73Z" style="fill: #222b90"/>
  <path d="M82.92,23.93A4.93,4.93,0,1,1,78,19a4.93,4.93,0,0,1,4.93,4.93Z" style="fill: #fd014b"/>
  <path d="M168.7,52.89A4.93,4.93,0,1,1,163.77,48a4.92,4.92,0,0,1,4.93,4.94Z" style="fill: #fd014b"/>
  <g>
    <path d="M92.62,19.78h5v18a30.09,30.09,0,0,1-.15,3h.15s3.09-7.16,12.6-7.16c10,0,16.15,8,16.15,19.47,0,11.72-7,19.39-16.74,19.39a13.52,13.52,0,0,1-12.16-7.23h-.15a28.38,28.38,0,0,1,.15,3v3.31H92.62Zm16.67,48.3c6.56,0,11.94-5.53,11.94-15,0-9.07-4.79-14.89-11.72-14.89-6.2,0-12,4.42-12,15C97.49,60.63,101.32,68.08,109.29,68.08Z" style="fill: #222b90"/>
    <path d="M132,19.78h5V61.73c0,4.87,2.21,5.61,4.12,5.61a10.55,10.55,0,0,0,1.26-.08v4.5a12.56,12.56,0,0,1-1.84.15c-3.1,0-8.56-1-8.56-9.07Z" style="fill: #222b90"/>
    <path d="M163.77,33.64c10.84,0,19.61,8.26,19.61,19.25a19.61,19.61,0,1,1-39.22,0C144.16,41.9,152.93,33.64,163.77,33.64Zm0,34.36c8,0,14.45-6.49,14.45-15.11a14.45,14.45,0,1,0-28.9,0C149.32,61.51,155.81,68,163.77,68Z" style="fill: #222b90"/>
    <path d="M201.89,82.6c7.22,0,13-3.39,13-11.65V67.56A25.39,25.39,0,0,1,215,64.9h-.15c-2.21,4.13-6,6.49-11.72,6.49-9.95,0-16.52-7.89-16.52-19s6.12-18.73,16.08-18.73c9.8,0,12.23,6.2,12.23,6.2h.15a8.92,8.92,0,0,1-.07-1.26v-4h4.87v36.2c0,11.8-8.7,16.37-17.77,16.37a27.25,27.25,0,0,1-12.17-2.95L191.86,80A22.77,22.77,0,0,0,201.89,82.6Zm13-30.23c0-10.84-5.15-14.15-11.72-14.15-7.22,0-11.42,5.23-11.42,14.08S196.58,66.9,204,66.9C209.78,66.9,214.93,63.28,214.93,52.37Z" style="fill: #222b90"/>
  </g>
</svg>
